<?xml version="1.0" encoding="UTF-8"?>
<svg width="70px" height="53px" viewBox="0 0 70 53" version="1.1" xmlns="http://www.w3.org/2000/svg" xmlns:xlink="http://www.w3.org/1999/xlink">
    <!-- Generator: Sketch 61.2 (89653) - https://sketch.com -->
    <title>logo</title>
    <desc>Created with Sketch.</desc>
    <g id="Page-1" stroke="none" stroke-width="1" fill="none" fill-rule="evenodd">
        <g id="logo" fill="#FA6400">
            <path d="M57.8679438,28.6962591 L57.8679438,23.1296 C57.8679438,22.6506346 58.1523035,22.544031 58.4441463,22.544031 C58.735615,22.544031 59.0199747,22.6506346 59.0199747,23.1296 L59.0199747,28.6962591 C59.0199747,29.1752245 58.735615,29.2818281 58.4441463,29.2818281 C58.1523035,29.2818281 57.8679438,29.1752245 57.8679438,28.6962591 L57.8679438,28.6962591 Z M49.0142554,22.6960537 L49.3461331,22.6960537 C49.7042018,22.6960537 49.8766884,22.7891442 49.8766884,23.4013641 L49.8766884,28.4766707 C49.8766884,29.0888906 49.7042018,29.1819811 49.3461331,29.1819811 L49.0142554,29.1819811 L49.0142554,22.6960537 Z M38.6669304,26.6107326 L38.9946923,22.931032 L39.0874834,22.931032 L39.3617408,26.6107326 L38.6669304,26.6107326 Z M34.2956485,22.6960537 L34.6275262,22.6960537 C34.9855949,22.6960537 35.1580815,22.7891442 35.1580815,23.4013641 L35.1580815,28.4766707 C35.1580815,29.0888906 34.9855949,29.1819811 34.6275262,29.1819811 L34.2956485,29.1819811 L34.2956485,22.6960537 Z M15.6876747,22.5049931 L16.2436727,22.5049931 C16.5624549,22.5049931 16.7746022,22.7328395 16.7746022,23.0924389 L16.7746022,24.5146959 C16.7746022,24.8607822 16.6683415,25.2830675 16.1774469,25.2830675 L15.6876747,25.2830675 L15.6876747,22.5049931 Z M11.2333299,26.6107326 L11.5610919,22.931032 L11.653883,22.931032 L11.9285145,26.6107326 L11.2333299,26.6107326 Z M65.2549349,30.6774342 L63.5349329,30.6774342 L62.4162021,25.2826921 L62.4162021,30.6774342 L61.0026351,30.6774342 L61.0026351,21.2006006 L62.9048518,21.2006006 L63.8241567,26.0187824 L63.8241567,21.2006006 L65.2549349,21.2006006 L65.2549349,30.6774342 Z M60.4264326,29.2668135 C60.4264326,30.5043911 59.2934838,30.8636151 58.4306766,30.8636151 C57.5682437,30.8636151 56.4614858,30.5043911 56.4614858,29.2668135 L56.4614858,22.6115966 C56.4614858,21.3736437 57.5682437,21.0140443 58.4306766,21.0140443 C59.2934838,21.0140443 60.4264326,21.3736437 60.4264326,22.6115966 L60.4264326,29.2668135 Z M55.8602148,24.4174764 L54.4537568,24.4174764 L54.4537568,23.0950664 C54.4537568,22.616101 54.1693971,22.5094974 53.8906498,22.5094974 C53.5991811,22.5094974 53.3320327,22.616101 53.3320327,23.0950664 L53.3320327,24.1449616 C53.3320327,24.8239964 55.8426294,26.0244129 55.8426294,26.9830944 L55.8426294,29.2668135 C55.8426294,30.5043911 54.7534569,30.8636151 53.8775543,30.8636151 C53.0151213,30.8636151 51.9431601,30.5043911 51.9431601,29.2668135 L51.9431601,27.204935 L53.3496181,27.204935 L53.3496181,28.8869444 C53.3496181,29.3659098 53.5991811,29.472138 53.8906498,29.472138 C54.1693971,29.472138 54.4361714,29.3659098 54.4361714,28.8869444 L54.4361714,27.8888495 C54.4361714,26.5574308 51.9255747,26.1888226 51.9255747,24.6449474 L51.9255747,22.6115966 C51.9255747,21.3736437 53.0151213,21.0140443 53.8775543,21.0140443 C54.7534569,21.0140443 55.8602148,21.3736437 55.8602148,22.6115966 L55.8602148,24.4174764 Z M51.2827722,28.9605159 C51.2827722,29.8655203 50.6994607,30.6774342 49.6114107,30.6774342 L47.6077974,30.6774342 L47.6077974,21.2006006 L49.3060982,21.2006006 C50.6994607,21.2006006 51.2827722,21.6799414 51.2827722,23.3435579 L51.2827722,28.9605159 Z M45.36622,30.6774342 L46.772678,30.6774342 L46.772678,21.2002252 L45.36622,21.2002252 L45.36622,30.6774342 Z M43.648463,30.6774342 L42.0747567,30.6774342 L40.7543549,21.2006006 L42.1881264,21.2006006 L42.8709638,26.8993881 L43.5523045,21.2006006 L44.9688648,21.2006006 L43.648463,30.6774342 Z M39.7770556,30.6774342 L39.5289892,28.2124139 L38.4993078,28.2124139 L38.2115807,30.6774342 L36.9383228,30.6774342 L38.0129031,21.2006006 L40.1220288,21.2006006 L41.1966091,30.6774342 L39.7770556,30.6774342 Z M36.5645395,28.9605159 C36.5645395,29.8655203 35.9808538,30.6774342 34.8928039,30.6774342 L32.8891906,30.6774342 L32.8891906,21.2006006 L34.5874914,21.2006006 C35.9808538,21.2006006 36.5645395,21.6799414 36.5645395,23.3435579 L36.5645395,28.9605159 Z M29.5584407,26.5007507 L32.1326442,26.5007507 L32.1326442,25.3044633 L29.5584407,25.3044633 L29.5584407,26.5007507 Z M28.5474672,30.6774342 L27.1410093,30.6774342 L27.1410093,27.136994 L25.6948906,21.2006006 L27.1410093,21.2006006 L27.8994265,24.511693 L28.6802931,21.2006006 L29.9935859,21.2006006 L28.5474672,27.070179 L28.5474672,30.6774342 Z M25.2851882,30.6774342 L22.3525419,30.6774342 L22.3525419,21.2006006 L25.2589972,21.2006006 L25.2589972,22.6810391 L23.7586257,22.6810391 L23.7586257,24.9955381 L25.1923971,24.9955381 L25.1923971,26.4932434 L23.7586257,26.4932434 L23.7586257,29.1797289 L25.2851882,29.1797289 L25.2851882,30.6774342 Z M21.8811034,30.6774342 L19.0464864,30.6774342 L19.0464864,21.2006006 L20.4525702,21.2006006 L20.4525702,29.1797289 L21.8811034,29.1797289 L21.8811034,30.6774342 Z M18.2326939,24.1686096 C18.2326939,24.8739199 18.104732,25.4260815 17.5996194,25.8277217 C17.6729543,25.9114281 18.2151085,26.2744058 18.2315714,26.9162795 L18.2323197,30.6774342 L16.8262359,30.6774342 L16.8266101,27.507479 C16.8266101,26.9354231 16.5849043,26.7529958 15.6876747,26.7529958 L15.6876747,30.6774342 L14.2812168,30.6774342 L14.2812168,21.2006006 L16.6051089,21.2006006 C17.7328195,21.2006006 18.2326939,21.5999887 18.2326939,22.8244285 L18.2326939,24.1686096 Z M12.3438293,30.6774342 L12.0961371,28.2124139 L11.0664557,28.2124139 L10.7783545,30.6774342 L9.5047224,30.6774342 L10.5793027,21.2006006 L12.6888025,21.2006006 L13.763757,30.6774342 L12.3438293,30.6774342 Z M9.06882894,30.6774342 L7.66237098,30.6774342 L7.66237098,26.6092311 L6.55149743,26.6092311 L6.55149743,30.6774342 L5.14503947,30.6774342 L5.14503947,21.2006006 L6.55149743,21.2006006 L6.55149743,24.990283 L7.66237098,24.990283 L7.66237098,21.2006006 L9.06882894,21.2006006 L9.06882894,30.6774342 Z M3.1096228,32.0985651 L66.9940188,32.0985651 L66.9940188,19.9318678 L3.1096228,19.9318678 L3.1096228,32.0985651 Z M48.8548643,11.9426046 C49.2005858,12.0120471 49.2005858,12.341242 49.2005858,12.6359033 C49.2005858,12.9305646 49.1485779,13.2075838 48.8376531,13.2075838 L46.920096,13.2075838 L46.920096,11.5439673 L48.8548643,11.9426046 Z M42.2902714,11.0758874 L42.2902714,14.6114479 C42.2902714,14.923376 42.1522073,15.1140613 41.7720633,15.1140613 L40.5799975,15.1140613 C40.2170648,15.1140613 40.0790007,14.8715757 40.0790007,14.5769144 L40.0790007,10.1401031 C40.0790007,9.75873254 40.3555031,9.65475651 40.5975829,9.75873254 L41.9105015,10.2789881 C42.2558489,10.4520312 42.2902714,10.6945168 42.2902714,11.0758874 L42.2902714,11.0758874 Z M28.4355941,10.2789881 L29.7485127,9.75873254 C29.9902185,9.65475651 30.2667208,9.75873254 30.2667208,10.1401031 L30.2667208,14.5769144 C30.2667208,14.8715757 30.1282826,15.1140613 29.765724,15.1140613 L28.5736582,15.1140613 C28.1935142,15.1140613 28.0554501,14.923376 28.0554501,14.6114479 L28.0554501,11.0758874 C28.0554501,10.6945168 28.0898726,10.4520312 28.4355941,10.2789881 L28.4355941,10.2789881 Z M1.55499848,33.658581 L68.5142207,33.658581 L68.5142207,18.5460211 L1.55499848,18.5460211 L1.55499848,33.658581 Z M48.8219385,39.6051092 C48.8219385,39.6051092 46.1021878,39.6670444 45.6071774,39.6051092 C45.1435963,39.5427987 44.9583883,39.4497082 44.9583883,39.1085017 C44.9583883,38.7984504 44.9273333,36.7519618 44.9583883,36.1630145 C45.0201243,35.5736919 45.9476607,35.2685204 46.3801868,35.2065852 C46.7820319,35.1754299 50.4599999,35.2065852 50.4599999,35.2065852 L50.4599999,36.8142724 L46.5347138,36.8142724 C46.3801868,36.8142724 46.4112418,38.1475679 46.5347138,38.1475679 L50.0581548,38.1475679 C50.5527909,38.1475679 50.491055,38.2714383 50.491055,38.4883991 L50.491055,40.4729525 C50.491055,40.6899133 50.1820009,40.9380294 50.0581548,41.0622751 C49.9657379,41.1553656 44.8038613,44.2870336 44.8038613,44.2870336 L44.8038613,42.8914275 C44.8038613,42.8914275 48.9147295,40.2871469 48.9454104,40.100966 C49.0071464,39.82207 48.8219385,39.6051092 48.8219385,39.6051092 L48.8219385,39.6051092 Z M43.477473,39.4849925 L43.477473,40.9113785 L41.7469947,40.9113785 L41.7469947,44.3534732 L43.8486373,43.3610088 L43.8486373,44.8804853 L41.0667764,46.2760914 C40.7266673,46.431117 40.2937671,46.2760914 40.2937671,45.9660401 L40.2937671,35.825937 C40.2937671,35.4227953 40.6338762,35.2065852 40.9122494,35.2065852 L44.1576913,35.2065852 L44.1576913,36.973427 L41.7469947,36.973427 L41.7469947,39.4849925 L43.477473,39.4849925 Z M39.4923218,45.3722131 L39.4923218,47.0467152 C39.4923218,47.0467152 36.7718227,48.255765 36.3392967,48.4731012 C36.0919786,48.597347 35.8139796,48.3796354 35.8139796,48.0076489 L35.8139796,35.2065852 L37.6686782,35.2065852 L37.6686782,46.116186 L39.4923218,45.3722131 Z M32.5382309,45.8376654 C32.6310219,46.0234709 34.6709285,46.9851554 34.6709285,46.9851554 L34.6709285,48.9077736 C34.6709285,48.9077736 31.3948056,47.5121675 31.0857515,47.2021162 C30.7456424,46.861285 30.7145873,46.4889232 30.7145873,46.3338976 L30.7145873,36.5969362 C30.7145873,36.0079889 31.8890677,35.2065852 32.1674408,35.2065852 L34.5781374,35.2065852 L34.5781374,36.9689226 C34.5781374,37.0308578 33.1873941,37.0308578 32.847285,36.9689226 C32.662077,36.9381427 32.4147589,37.1858835 32.4147589,38.0544775 L32.4147589,45.2487181 C32.4147589,45.4033684 32.4147589,45.6826397 32.5382309,45.8376654 L32.5382309,45.8376654 Z M24.7460272,35.2065852 L26.4151438,35.2065852 L27.3116251,37.9977974 L28.7641044,35.2065852 L30.3404299,35.2065852 L28.0838861,40.1062211 L28.0838861,45.9671662 C28.0838861,46.2464376 26.5079348,45.3778436 26.4772539,45.1608827 C26.4151438,44.9439219 26.4772539,40.044286 26.4772539,40.044286 L24.7460272,35.2065852 Z M21.1002368,39.5469277 C21.1930278,39.6092382 24.8403149,42.4620103 24.8403149,42.4620103 L24.8403149,44.1984475 C24.8403149,44.1984475 19.7094934,40.3535865 19.5549664,40.260496 C19.3693843,40.1366257 19.1220662,39.7019533 19.0603302,39.3922774 C18.9985942,39.0822261 19.0603302,36.6014406 19.0603302,36.3221692 C19.0603302,36.0428978 19.3693843,35.2065852 19.8019103,35.2065852 L23.7893066,35.2065852 L23.7893066,36.8495566 L21.4092909,36.8495566 C21.0385008,36.8184014 20.8222378,36.9426471 20.8222378,37.2834783 L20.8222378,39.113006 C20.8222378,39.2372518 20.9763907,39.4849925 21.1002368,39.5469277 L21.1002368,39.5469277 Z M56.8360175,38.5803635 C52.7591976,42.7397802 40.4400626,51.4054506 35.04995,51.4054506 C29.6598374,51.4054506 17.3792407,42.7397802 13.3024208,38.5803635 C15.4100499,37.6445792 15.7553972,36.2808791 15.8934613,35.2065852 L17.5865239,35.2065852 C17.4828823,36.2114366 17.2755991,37.8179977 15.8934613,38.7883155 C17.4828823,40.3134225 29.3837092,49.880719 35.04995,49.880719 C40.7161909,49.880719 52.655556,40.3134225 54.2446028,38.7883155 C52.8628392,37.8179977 52.655556,36.2114366 52.5519144,35.2065852 L54.2446028,35.2065852 C54.3834152,36.2808791 54.7283884,37.6445792 56.8360175,38.5803635 L56.8360175,38.5803635 Z M22.5792813,16.7742996 L21.2487773,13.9181492 L21.2487773,16.7742996 L19.625308,16.7742996 L19.625308,10.7639593 L21.2487773,10.469298 L22.5272734,13.2075838 L23.9442078,9.8976175 L25.4644096,9.49860478 L25.4644096,16.7742996 L23.840192,16.7742996 L23.840192,13.8145486 L22.5792813,16.7742996 Z M31.8905643,8.73623899 L31.8905643,15.1140613 C31.8905643,16.3966826 30.9750009,16.7742996 30.2667208,16.7742996 L28.1418805,16.7742996 C26.7253203,16.7742996 26.4143954,15.7206507 26.4316067,15.1835038 L26.4316067,10.816135 C26.4143954,9.77599932 26.7253203,9.1694099 27.4163892,8.89239072 L30.2495096,7.80045469 C31.1134392,7.48852659 31.8905643,7.97349783 31.8905643,8.73623899 L31.8905643,8.73623899 Z M32.0978475,8.82294824 L32.0978475,7.02044675 L35.04995,5.40863056 L38.1442324,7.10715601 L38.1442324,8.9096575 L36.0021808,7.74827899 L36.0021808,16.7742996 L34.2398991,16.7742996 L34.2398991,7.64430295 L32.0978475,8.82294824 Z M43.9141148,10.816135 L43.9141148,15.1835038 C43.9317002,15.7206507 43.6204012,16.7742996 42.2042152,16.7742996 L40.0790007,16.7742996 C39.3707206,16.7742996 38.4551572,16.3966826 38.4551572,15.1140613 L38.4551572,8.73623899 C38.4551572,7.97349783 39.2326565,7.48852659 40.0962119,7.80045469 L42.9293323,8.89239072 C43.6204012,9.1694099 43.9317002,9.77599932 43.9141148,10.816135 L43.9141148,10.816135 Z M50.8244293,15.0795277 L50.8244293,16.7742996 L49.2005858,16.7742996 L49.2005858,15.4432562 C49.2005858,15.027352 48.699589,14.8370421 48.4750945,14.8370421 L46.920096,14.8370421 L46.920096,16.7742996 L45.2962525,16.7742996 L45.2962525,9.62022295 L49.2005858,10.4347644 C49.7535906,10.5560073 50.8244293,10.9201111 50.8244293,11.9944049 L50.8244293,13.1557834 C50.8244293,13.5716876 50.7724214,13.9357914 50.2542133,14.1955438 C50.4962932,14.3340534 50.8244293,14.8021332 50.8244293,15.0795277 L50.8244293,15.0795277 Z M13.4371175,12.7770404 L13.4397366,8.61874982 C25.8640098,7.9727471 31.9953284,4.23223746 35.04995,1.93350378 C38.3260729,4.26489419 44.2175565,7.9727471 56.6422039,8.61874982 L56.6358432,12.7770404 C54.9450256,13.388885 53.7252722,14.8809598 53.6680261,16.7742996 L52.1766344,16.7742996 C52.2249007,14.6305915 53.3930204,12.8723831 55.1163897,11.8487634 L55.1208796,9.96555851 C45.0889693,9.25611915 38.5389685,6.13646279 35.04995,3.72887334 C32.0035598,5.9724284 25.8786019,8.97909997 14.9606867,9.96555851 L14.9648025,11.8487634 C16.6889201,12.8723831 17.8566656,14.6305915 17.9049319,16.7742996 L16.4135402,16.7742996 C16.3566683,14.8809598 15.1279351,13.388885 13.4371175,12.7770404 L13.4371175,12.7770404 Z M70,16.7742996 L55.1377167,16.7742996 C55.2290111,15.1782487 56.5475421,13.9158971 58.1612833,13.9158971 L58.1612833,7.24941925 C44.4323229,6.76745092 38.0072907,2.27320887 35.04995,0 C32.0926093,2.27320887 25.6492434,6.76745092 11.9202831,7.24941925 L11.9202831,13.9158971 C13.5340243,13.9158971 14.8525552,15.1782487 14.9438497,16.7742996 L0,16.7742996 L0,35.2065852 L13.8894739,35.2065852 C13.8894739,35.7959078 13.578549,37.5406031 9.84707649,37.9565073 C12.4040687,40.3134225 27.3105026,53 35.04995,53 C42.7893974,53 57.7347437,40.3134225 60.2913618,37.9565073 C56.801595,37.5751367 56.2489644,36.0387688 56.2489644,35.2065852 L70,35.2065852 L70,16.7742996 Z" id="Fill-1"></path>
        </g>
    </g>
</svg>